<?xml version="1.0" standalone="no"?><!DOCTYPE svg PUBLIC "-//W3C//DTD SVG 1.1//EN" "http://www.w3.org/Graphics/SVG/1.1/DTD/svg11.dtd"><svg class="icon" width="200px" height="200.00px" viewBox="0 0 1024 1024" version="1.1" xmlns="http://www.w3.org/2000/svg"><path d="M512 4.096C231.424 4.096 4.096 231.424 4.096 512s227.328 508.416 508.416 508.416 508.416-227.328 508.416-508.416S792.576 4.096 512 4.096z m0 941.568c-239.616 0-433.664-194.048-433.664-433.664S272.384 78.336 512 78.336s433.664 194.048 433.664 433.664-194.048 433.664-433.664 433.664z" fill="#F4DCCB" /><path d="M463.36 728.064V295.936c0-26.624 21.504-48.64 48.64-48.64 26.624 0 48.64 21.504 48.64 48.64v432.64c0 26.624-21.504 48.64-48.64 48.64-26.624-0.512-48.64-22.016-48.64-49.152z" fill="#FF9D4D" /><path d="M295.936 463.36h432.64c26.624 0 48.64 21.504 48.64 48.64 0 26.624-21.504 48.64-48.64 48.64H295.936c-26.624 0-48.64-21.504-48.64-48.64 0-26.624 21.504-48.64 48.64-48.64z" fill="#FF9D4D" /></svg>