<?xml version="1.0" standalone="no"?><!DOCTYPE svg PUBLIC "-//W3C//DTD SVG 1.1//EN" "http://www.w3.org/Graphics/SVG/1.1/DTD/svg11.dtd"><svg class="icon" width="200px" height="200.00px" viewBox="0 0 1024 1024" version="1.1" xmlns="http://www.w3.org/2000/svg"><path d="M512 512m-512 0a512 512 0 1 0 1024 0 512 512 0 1 0-1024 0Z" fill="#FDEBED" /><path d="M729.6 384H294.4c-7.68 0-12.8-5.12-12.8-12.8v-25.6c0-7.68 5.12-12.8 12.8-12.8h115.2v-25.6c0-14.08 11.52-25.6 25.6-25.6h153.6c14.08 0 25.6 11.52 25.6 25.6v25.6h115.2c7.68 0 12.8 5.12 12.8 12.8v25.6c0 7.68-5.12 12.8-12.8 12.8z m-371.2 38.4h307.2c28.16 0 51.2 23.04 51.2 51.2v217.6c0 28.16-23.04 51.2-51.2 51.2H358.4c-28.16 0-51.2-23.04-51.2-51.2V473.6c0-28.16 23.04-51.2 51.2-51.2z m192 243.2c0 7.68 5.12 12.8 12.8 12.8s12.8-5.12 12.8-12.8V537.6c0-7.68-5.12-12.8-12.8-12.8s-12.8 5.12-12.8 12.8v128z m-102.4 0c0 7.68 5.12 12.8 12.8 12.8s12.8-5.12 12.8-12.8V537.6c0-7.68-5.12-12.8-12.8-12.8s-12.8 5.12-12.8 12.8v128z" fill="#EC3A4E" /></svg>