<?xml version="1.0" standalone="no"?><!DOCTYPE svg PUBLIC "-//W3C//DTD SVG 1.1//EN" "http://www.w3.org/Graphics/SVG/1.1/DTD/svg11.dtd"><svg class="icon" width="200px" height="200.00px" viewBox="0 0 1024 1024" version="1.1" xmlns="http://www.w3.org/2000/svg"><path d="M227.918968 872.560106c-52.260956 0-93.668998-5.009037-108.028238-19.368278C91.673153 824.139412 100.021549 680.713977 112.71111 565.506119a25.54609 25.54609 0 0 1 7.17962-15.027112L612.279097 58.257608a198.357877 198.357877 0 0 1 280.840024 0l22.3737 22.3737a198.357877 198.357877 0 0 1 0 280.339121L422.603551 853.191828a24.043379 24.043379 0 0 1-14.860144 7.17962 1700.401196 1700.401196 0 0 1-179.824439 12.188658z m-71.963169-55.266379c25.212154 9.350203 139.084269 4.842069 237.595336-5.676909l485.876618-486.043586a148.267504 148.267504 0 0 0 0-209.544727l-22.206732-22.3737a148.267504 148.267504 0 0 0-209.544727 0L161.632708 579.698391c-10.518978 98.511067-15.027112 212.216214-5.676909 237.595336z" fill="#3D3D3D" /><path d="M965.416226 1024H58.279571a33.393582 33.393582 0 0 1 0-66.787164h907.136655a33.393582 33.393582 0 0 1 0 66.787164z" fill="#F683A2" /></svg>