<?xml version="1.0" standalone="no"?><!DOCTYPE svg PUBLIC "-//W3C//DTD SVG 1.1//EN" "http://www.w3.org/Graphics/SVG/1.1/DTD/svg11.dtd"><svg class="icon" width="200px" height="200.00px" viewBox="0 0 1024 1024" version="1.1" xmlns="http://www.w3.org/2000/svg"><path d="M637.6 449.7m-312.2 0a312.2 312.2 0 1 0 624.4 0 312.2 312.2 0 1 0-624.4 0Z" fill="#FFE4CC" /><path d="M651.4 493.1V284.3c0-1.2-0.1-2.5-0.2-3.7h78.6c25 0 47.4-17.6 51.3-42.4 4.9-31.2-19.4-58.3-49.7-58.3h-325c-25 0-47.4 17.6-51.3 42.4-4.9 31.2 19.4 58.3 49.7 58.3h81.9c-0.1 1.2-0.2 2.4-0.2 3.7v207.5L249.3 822c-14.8 17-2.7 43.6 19.9 43.6h593.2c22.4 0 34.6-26.2 20.1-43.3L651.4 493.1z" fill="#FFFFFF" /><path d="M862.4 877.7H269.2c-15.3 0-28.7-8.6-35-22.5-6.2-13.7-4.1-29.2 5.6-40.7l234.6-326.7V292.7h-69.6c-18.2 0-35.5-8-47.4-21.9-11.9-13.9-17.1-32.2-14.3-50.4 4.7-30 31.9-52.6 63.2-52.6h325c18.2 0 35.5 8 47.4 21.9 11.9 13.9 17.1 32.2 14.3 50.4-4.7 30-31.9 52.6-63.2 52.6h-66.3v196.5L892.1 815c9.4 11.5 11.4 27 5.1 40.5-6.3 13.7-19.7 22.2-34.8 22.2zM406.3 192c-19.5 0-36.4 13.8-39.3 32.1-1.8 11.3 1.3 22.3 8.7 30.9 7.3 8.5 17.9 13.4 29 13.4h81.9c3.3 0 6.5 1.4 8.8 3.7s3.5 5.6 3.3 8.9c0 0.5-0.1 1.1-0.1 1.6 0 0.6-0.1 1.1-0.1 1.5v207.5c0 2.5-0.8 5-2.3 7.1L259.1 829.1c-0.2 0.3-0.5 0.6-0.7 0.9-3.8 4.3-4.6 10-2.2 15.2 2.4 5.2 7.2 8.3 12.9 8.3h593.2c5.7 0 10.5-3.1 12.9-8.2 2.4-5.1 1.6-10.8-2-15.1-0.2-0.3-0.5-0.6-0.7-0.9L641.5 500c-1.4-2-2.2-4.5-2.2-7V284.3c0-0.4 0-0.9-0.1-1.5 0-0.5-0.1-1.1-0.1-1.6-0.1-3.3 1.1-6.5 3.3-8.9 2.3-2.4 5.5-3.7 8.8-3.7h78.6c19.5 0 36.4-13.8 39.3-32.1 1.8-11.3-1.3-22.3-8.7-30.9-7.3-8.5-17.9-13.4-29-13.4H406.3z" fill="#441B00" /><path d="M249.3 822c-14.8 17-2.7 43.6 19.9 43.6h593.2c22.4 0 34.6-26.2 20.1-43.3L758 644.9H376.5L249.3 822z" fill="#F88E20" /><path d="M862.4 877.7H269.2c-15.3 0-28.7-8.6-35-22.5-6.2-13.7-4.1-29.2 5.6-40.7l126.9-176.7c2.3-3.2 5.9-5.1 9.8-5.1H758c3.9 0 7.7 1.9 9.9 5.2l124.3 177c9.4 11.5 11.4 27 5.1 40.5-6.4 13.8-19.8 22.3-34.9 22.3zM382.7 657L259.1 829.1c-0.2 0.3-0.5 0.6-0.7 0.9-3.8 4.3-4.6 10-2.2 15.2 2.4 5.2 7.2 8.3 12.9 8.3h593.2c5.7 0 10.5-3.1 12.9-8.2 2.4-5.1 1.6-10.8-2-15.1-0.2-0.3-0.5-0.6-0.7-0.9L751.7 657h-369z" fill="#441B00" /><path d="M484.7 734.3H321c-6.7 0-12.1-5.4-12.1-12.1S314.3 710 321 710h163.7c6.7 0 12.1 5.4 12.1 12.1s-5.4 12.2-12.1 12.2zM434.8 800.9H271.1c-6.7 0-12.1-5.4-12.1-12.1s5.4-12.1 12.1-12.1h163.7c6.7 0 12.1 5.4 12.1 12.1s-5.4 12.1-12.1 12.1zM525.6 800.9H483c-6.7 0-12.1-5.4-12.1-12.1s5.4-12.1 12.1-12.1h42.5c6.7 0 12.1 5.4 12.1 12.1s-5.4 12.1-12 12.1z" fill="#441B00" /><path d="M458.6 360.6H132.1c-27.7 0-50.3 22.7-50.3 50.3s22.7 50.3 50.3 50.3H214c-0.1 1.2-0.2 2.4-0.2 3.7v324.2c0 45.3 37.1 82.5 82.5 82.5s82.5-37.1 82.5-82.5V465c0-1.2-0.1-2.5-0.2-3.7h80.1c27.7 0 50.3-22.7 50.3-50.3s-22.7-50.4-50.4-50.4z" fill="#FFFFFF" /><path d="M296.2 883.8c-52.1 0-94.6-42.4-94.6-94.6V473.5H132c-34.4 0-62.5-28-62.5-62.5 0-34.4 28-62.5 62.5-62.5h326.5c34.4 0 62.5 28 62.5 62.5 0 34.4-28 62.5-62.5 62.5h-67.8v315.8c0.1 52.1-42.3 94.5-94.5 94.5z m-164.1-511c-21.1 0-38.2 17.1-38.2 38.2s17.1 38.2 38.2 38.2H214c3.3 0 6.5 1.4 8.8 3.7 2.3 2.4 3.5 5.6 3.3 8.9 0 0.5-0.1 1.1-0.1 1.6 0 0.6-0.1 1.1-0.1 1.5v324.2c0 38.8 31.6 70.3 70.3 70.3 38.8 0 70.3-31.6 70.3-70.3V465c0-0.4 0-0.9-0.1-1.5 0-0.5-0.1-1.1-0.1-1.6-0.1-3.3 1.1-6.5 3.3-8.9 2.3-2.4 5.5-3.7 8.8-3.7h80.1c21.1 0 38.2-17.1 38.2-38.2s-17.1-38.2-38.2-38.2H132.1z" fill="#441B00" /><path d="M296.2 871.7c-45.3 0-82.5-37.1-82.5-82.5v-225h164.9v225c0.1 45.4-37 82.5-82.4 82.5z" fill="#F88E20" /><path d="M296.2 883.8c-52.1 0-94.6-42.4-94.6-94.6v-225c0-6.7 5.4-12.1 12.1-12.1h164.9c6.7 0 12.1 5.4 12.1 12.1v225c0.1 52.2-42.3 94.6-94.5 94.6z m-70.3-307.4v212.9c0 38.8 31.6 70.3 70.3 70.3 38.8 0 70.3-31.6 70.3-70.3V576.4H225.9z" fill="#441B00" /><path d="M295.4 663.1h-81.6c-6.7 0-12.1-5.4-12.1-12.1s5.4-12.1 12.1-12.1h81.6c6.7 0 12.1 5.4 12.1 12.1s-5.5 12.1-12.1 12.1z" fill="#441B00" /><path d="M259 723.7h-45.2c-6.7 0-12.1-5.4-12.1-12.1s5.4-12.1 12.1-12.1H259c6.7 0 12.1 5.4 12.1 12.1s-5.4 12.1-12.1 12.1z" fill="#441B00" /></svg>