<?xml version="1.0" standalone="no"?><!DOCTYPE svg PUBLIC "-//W3C//DTD SVG 1.1//EN" "http://www.w3.org/Graphics/SVG/1.1/DTD/svg11.dtd"><svg class="icon" width="200px" height="200.00px" viewBox="0 0 1024 1024" version="1.1" xmlns="http://www.w3.org/2000/svg"><path d="M509.597 925.603c-17.441 0-34.644-4.562-49.75-13.192L184.399 755.007c-30.719-17.552-49.801-50.275-49.801-85.4v-314.24c0-35.123 19.083-67.846 49.802-85.401L459.849 112.57c15.106-8.633 32.308-13.195 49.749-13.195 17.44 0 34.643 4.563 49.749 13.195l275.451 157.397c30.718 17.555 49.801 50.279 49.801 85.401v314.239c0 35.125-19.082 67.849-49.8 85.399L559.346 912.411c-15.104 8.631-32.308 13.192-49.749 13.192z" fill="#FFFFFF" /><path d="M509.597 124.374a75.39 75.39 0 0 1 37.347 9.902l275.448 157.396c22.95 13.115 37.206 37.522 37.206 63.696v314.239c0 26.176-14.255 50.582-37.205 63.695L546.945 890.704c-11.335 6.477-24.25 9.9-37.348 9.9-13.098 0-26.012-3.423-37.344-9.899L196.8 733.3c-22.948-13.112-37.203-37.518-37.203-63.694V355.367c0-26.174 14.257-50.581 37.204-63.695l275.452-157.398a75.378 75.378 0 0 1 37.344-9.9m0-50a125.203 125.203 0 0 0-62.152 16.489L171.995 248.26c-38.603 22.061-62.398 62.904-62.398 107.107v314.239c0 44.208 23.795 85.05 62.398 107.107l275.45 157.404c19.235 10.991 40.694 16.487 62.152 16.487s42.917-5.496 62.153-16.487L847.2 776.713c38.603-22.057 62.398-62.898 62.398-107.107V355.367c0-44.203-23.795-85.046-62.398-107.107L571.75 90.863a125.21 125.21 0 0 0-62.153-16.489z" fill="#1A1A1A" /><path d="M479.873 713.398l-131.736-75.001c-18.462-10.513-29.843-29.972-29.843-51.038V437.621c0-21.066 11.381-40.525 29.843-51.038l131.736-75.005c18.398-10.475 41.048-10.475 59.448 0l131.738 75.005c18.462 10.513 29.841 29.972 29.841 51.038v149.738c0 21.066-11.379 40.525-29.841 51.038l-131.738 75.001c-18.399 10.476-41.05 10.476-59.448 0z" fill="#FFCD36" /></svg>