<?xml version="1.0" standalone="no"?><!DOCTYPE svg PUBLIC "-//W3C//DTD SVG 1.1//EN" "http://www.w3.org/Graphics/SVG/1.1/DTD/svg11.dtd"><svg class="icon" width="200px" height="159.50px" viewBox="0 0 1284 1024" version="1.1" xmlns="http://www.w3.org/2000/svg"><path fill="#1aad19" d="M558.563164 680.893113c0 165.030026 162.721913 298.900536 362.373623 298.900536 48.470357 0 95.786658-8.078393 137.332679-21.927066 11.540561 5.770281 94.632602 77.32176 113.0975 64.627143 12.694617-10.386505-30.005459-87.708265-33.467628-101.556939 88.862322-54.240638 146.565128-140.794847 146.565128-238.889618 0-165.030026-162.721913-298.900536-362.373623-298.900536S558.563164 515.863087 558.563164 680.893113z m438.541327-106.173163c0-28.851403 23.081122-51.932526 51.932526-51.932526s51.932526 23.081122 51.932525 51.932526-23.081122 51.932526-51.932525 51.932525c-28.851403 1.154056-51.932526-23.081122-51.932526-51.932525z m-255.046403 0c0-28.851403 23.081122-51.932526 51.932525-51.932526s51.932526 23.081122 51.932526 51.932526-23.081122 51.932526-51.932526 51.932525c-28.851403 1.154056-53.086582-23.081122-51.932525-51.932525z"  /><path fill="#1aad19" d="M526.249593 678.585001c0-180.032755 177.724643-325.443827 395.84125-325.443827 11.540561 0 23.081122 0 33.467628 1.154056C931.323292 154.643521 727.055358 0 478.933291 0 214.654439 0 0 176.570587 0 394.687194c0 129.254286 76.167704 244.659898 192.727373 316.211378-4.616224 17.310842-60.010918 120.021837-43.854133 133.870511 24.235179 16.156786 133.87051-78.475816 148.87324-85.400153 55.394694 19.618954 116.559669 30.005459 181.186811 30.005459 23.081122 0 46.162245-1.154056 69.243368-4.616225-15.00273-33.467628-21.927066-69.243367-21.927066-106.173163zM646.271429 185.803036c38.083852 0 69.243367 31.159515 69.243368 69.243367 1.154056 38.083852-30.005459 69.243367-69.243368 69.243368-38.083852 0-69.243367-31.159515-69.243367-69.243368s31.159515-69.243367 69.243367-69.243367z m-335.830332 138.486735c-38.083852 0-69.243367-31.159515-69.243367-69.243368s31.159515-69.243367 69.243367-69.243367 69.243367 31.159515 69.243368 69.243367-31.159515 69.243367-69.243368 69.243368z"  /></svg>